<svg id="svg" version="1.1" width="400" height="400" viewBox="0 0 400 400" xmlns="http://www.w3.org/2000/svg" xmlns:xlink="http://www.w3.org/1999/xlink" ><g id="svgg"><path id="path0" d="M284.000 72.815 C 283.010 73.176,281.930 73.576,281.600 73.704 C 280.820 74.008,276.343 75.605,269.600 77.985 C 259.731 81.468,258.205 82.027,257.505 82.415 C 257.123 82.627,256.478 82.800,256.072 82.800 C 255.666 82.800,255.210 82.923,255.059 83.074 C 254.781 83.353,253.320 83.920,249.899 85.078 L 247.998 85.722 248.099 167.361 L 248.200 249.000 267.080 249.104 L 285.960 249.208 286.122 213.704 C 286.287 177.606,286.350 176.056,287.842 171.600 C 291.440 160.855,299.288 154.996,310.000 155.058 C 319.736 155.115,324.847 159.013,328.280 169.000 L 329.380 172.200 329.511 210.389 C 329.610 239.510,329.755 248.651,330.121 248.883 C 331.182 249.557,367.494 249.253,367.757 248.567 C 367.891 248.219,367.996 229.904,367.992 207.867 C 367.983 165.923,367.847 162.252,366.035 155.000 C 365.816 154.120,365.524 152.860,365.388 152.200 C 365.251 151.540,364.991 150.640,364.810 150.200 C 364.629 149.760,364.259 148.770,363.989 148.000 C 357.715 130.144,342.035 120.634,320.800 121.804 C 307.699 122.526,296.045 128.871,288.904 139.170 C 288.077 140.363,287.175 141.413,286.900 141.503 C 286.503 141.633,286.400 134.565,286.400 107.057 C 286.400 88.022,286.265 72.382,286.100 72.303 C 285.935 72.224,284.990 72.454,284.000 72.815 M166.600 117.617 C 163.510 117.898,161.116 118.355,158.600 119.144 C 156.620 119.765,151.567 121.974,151.200 122.379 C 151.090 122.501,150.550 122.852,150.000 123.160 C 144.895 126.017,137.500 133.501,134.764 138.577 C 133.429 141.054,133.200 140.358,133.200 133.821 C 133.200 127.073,133.021 126.545,131.073 127.539 C 130.593 127.784,128.850 128.448,127.200 129.014 C 125.550 129.581,123.840 130.188,123.400 130.364 C 122.510 130.718,120.757 131.335,114.000 133.671 C 111.470 134.546,108.860 135.499,108.200 135.790 C 107.540 136.080,105.290 136.896,103.200 137.602 C 101.110 138.309,99.085 139.165,98.700 139.505 C 98.038 140.090,98.000 143.936,98.000 209.635 L 98.000 279.146 99.162 279.973 C 99.801 280.428,100.523 280.800,100.767 280.800 C 101.011 280.800,101.523 280.965,101.905 281.166 C 102.690 281.580,104.721 282.426,106.800 283.204 C 107.570 283.492,108.371 283.879,108.580 284.064 C 108.789 284.249,109.189 284.400,109.470 284.400 C 109.750 284.400,111.109 284.909,112.490 285.531 C 113.870 286.153,116.260 287.167,117.800 287.784 C 119.340 288.401,121.140 289.138,121.800 289.422 C 122.460 289.706,123.923 290.300,125.050 290.743 C 126.178 291.186,127.978 291.938,129.050 292.414 C 132.339 293.874,132.575 293.964,133.400 294.084 C 134.196 294.199,134.201 293.913,134.406 232.800 C 134.626 167.050,134.539 169.880,136.459 165.600 C 136.705 165.050,137.106 164.150,137.350 163.600 C 139.910 157.817,145.176 153.275,151.718 151.206 C 155.963 149.864,167.563 151.298,168.333 153.260 C 168.407 153.447,168.704 153.600,168.993 153.600 C 169.821 153.600,173.301 157.643,174.351 159.824 C 178.137 167.692,177.982 164.100,177.991 244.202 L 178.000 312.605 179.300 313.143 C 180.015 313.439,181.141 313.920,181.803 314.213 C 182.464 314.506,185.524 315.769,188.603 317.020 C 191.681 318.271,195.010 319.652,196.000 320.087 C 196.990 320.523,198.250 321.063,198.800 321.287 C 199.350 321.510,200.113 321.852,200.495 322.047 C 200.877 322.241,201.367 322.400,201.584 322.400 C 201.801 322.400,203.018 322.869,204.289 323.441 C 205.560 324.014,207.005 324.644,207.500 324.841 C 207.995 325.039,208.805 325.362,209.300 325.559 C 209.795 325.756,211.190 326.368,212.400 326.918 C 213.610 327.468,214.739 327.788,214.910 327.629 C 215.615 326.972,214.978 157.637,214.258 154.400 C 213.891 152.750,213.483 150.770,213.351 150.000 C 212.972 147.785,210.894 141.834,209.333 138.491 C 206.053 131.468,199.195 124.629,192.200 121.404 C 189.682 120.244,184.033 118.400,182.995 118.400 C 182.476 118.400,181.635 118.246,181.126 118.057 C 179.789 117.562,170.351 117.276,166.600 117.617 M63.400 151.859 C 61.860 152.425,60.192 152.980,59.694 153.092 C 59.196 153.204,58.690 153.454,58.570 153.648 C 58.451 153.841,57.924 154.000,57.400 154.000 C 56.876 154.000,56.349 154.159,56.230 154.352 C 56.110 154.546,55.604 154.794,55.106 154.904 C 54.608 155.014,52.400 155.768,50.200 156.581 C 48.000 157.394,45.210 158.403,44.000 158.823 C 39.137 160.512,36.580 161.436,36.200 161.642 C 35.980 161.761,35.035 162.099,34.100 162.393 L 32.400 162.928 32.400 207.673 L 32.400 252.417 33.500 252.865 C 34.105 253.111,35.140 253.538,35.800 253.815 C 36.460 254.091,37.990 254.725,39.200 255.224 C 40.410 255.723,41.571 256.281,41.780 256.465 C 41.989 256.649,42.403 256.800,42.699 256.800 C 42.996 256.800,43.984 257.160,44.894 257.600 C 45.805 258.040,46.692 258.400,46.864 258.400 C 47.037 258.400,48.218 258.869,49.489 259.441 C 50.760 260.014,52.160 260.620,52.600 260.788 C 53.834 261.259,55.224 261.842,57.296 262.760 C 58.338 263.222,59.301 263.600,59.435 263.600 C 59.676 263.600,60.407 263.906,64.096 265.553 C 65.138 266.019,66.263 266.400,66.596 266.400 C 67.132 266.400,67.200 259.896,67.200 208.600 C 67.200 162.619,67.098 150.803,66.700 150.815 C 66.425 150.823,64.940 151.293,63.400 151.859 " stroke="none" fill="#fbf8f9" fill-rule="evenodd"></path><path id="path1" d="M0.000 200.000 L 0.000 400.000 200.000 400.000 L 400.000 400.000 400.000 200.000 L 400.000 0.000 200.000 0.000 L 0.000 0.000 0.000 200.000 M287.348 72.100 C 287.481 72.595,287.592 87.923,287.595 106.161 L 287.600 139.322 288.400 138.400 C 288.840 137.893,289.200 137.344,289.200 137.180 C 289.200 136.689,295.292 130.598,296.800 129.582 C 297.570 129.063,298.290 128.538,298.400 128.416 C 298.888 127.871,302.005 126.065,304.200 125.054 C 305.520 124.446,306.913 123.780,307.295 123.574 C 307.677 123.369,308.341 123.200,308.771 123.200 C 309.201 123.200,309.664 123.020,309.800 122.800 C 309.936 122.580,310.631 122.400,311.344 122.400 C 312.057 122.400,312.811 122.237,313.020 122.037 C 313.914 121.183,329.767 120.407,330.540 121.180 C 330.771 121.411,331.993 121.600,333.256 121.600 C 334.519 121.600,335.664 121.780,335.800 122.000 C 335.936 122.220,336.519 122.400,337.095 122.400 C 338.940 122.400,345.566 124.874,345.933 125.700 C 346.007 125.865,346.339 126.000,346.672 126.000 C 348.896 126.000,360.400 136.677,360.400 138.740 C 360.400 138.956,360.538 139.193,360.706 139.267 C 361.000 139.394,363.680 144.717,364.500 146.800 C 364.716 147.350,365.052 148.113,365.247 148.495 C 365.441 148.877,365.600 149.631,365.600 150.171 C 365.600 150.711,365.760 151.252,365.956 151.373 C 366.151 151.494,366.411 152.179,366.533 152.896 C 366.877 154.917,367.633 158.453,368.052 160.000 C 368.284 160.855,368.386 178.596,368.316 205.600 L 368.200 249.800 348.600 249.800 L 329.000 249.800 328.800 211.600 C 328.646 182.269,328.484 173.139,328.100 172.274 C 327.825 171.655,327.600 170.630,327.600 169.998 C 327.600 169.365,327.420 168.736,327.200 168.600 C 326.980 168.464,326.800 168.039,326.800 167.655 C 326.800 165.071,320.722 157.600,318.619 157.600 C 318.305 157.600,317.936 157.420,317.800 157.200 C 317.664 156.980,317.034 156.800,316.400 156.800 C 315.766 156.800,315.136 156.620,315.000 156.400 C 314.857 156.168,312.670 156.000,309.800 156.000 C 306.930 156.000,304.743 156.168,304.600 156.400 C 304.464 156.620,303.733 156.800,302.976 156.800 C 302.219 156.800,301.600 156.980,301.600 157.200 C 301.600 157.420,301.316 157.600,300.968 157.600 C 298.938 157.600,292.558 163.276,291.076 166.400 C 290.919 166.730,290.446 167.540,290.025 168.200 C 289.603 168.860,289.245 169.794,289.229 170.276 C 289.213 170.758,289.020 171.264,288.800 171.400 C 288.580 171.536,288.400 172.188,288.400 172.850 C 288.400 173.511,288.175 174.446,287.900 174.926 C 287.514 175.601,287.354 184.235,287.200 212.800 L 287.000 249.800 267.400 249.905 C 249.329 250.001,247.761 249.956,247.300 249.328 C 246.787 248.629,246.523 88.071,247.032 86.177 C 247.338 85.038,253.131 82.400,255.327 82.400 C 255.697 82.400,256.000 82.220,256.000 82.000 C 256.000 81.780,256.362 81.600,256.805 81.600 C 257.248 81.600,257.923 81.438,258.305 81.241 C 258.687 81.044,259.810 80.575,260.800 80.200 C 261.790 79.825,262.913 79.356,263.295 79.159 C 263.677 78.962,264.341 78.800,264.771 78.800 C 265.201 78.800,265.664 78.620,265.800 78.400 C 265.936 78.180,266.577 78.000,267.224 78.000 C 267.871 78.000,268.400 77.820,268.400 77.600 C 268.400 77.380,268.664 77.200,268.986 77.200 C 269.526 77.200,271.614 76.401,273.295 75.551 C 273.677 75.358,274.341 75.200,274.771 75.200 C 275.201 75.200,275.664 75.020,275.800 74.800 C 275.936 74.580,276.476 74.400,277.000 74.400 C 277.524 74.400,278.064 74.220,278.200 74.000 C 278.336 73.780,278.876 73.600,279.400 73.600 C 279.924 73.600,280.451 73.441,280.570 73.248 C 280.690 73.054,281.196 72.799,281.694 72.680 C 282.192 72.562,283.320 72.188,284.200 71.850 C 286.409 71.001,287.067 71.054,287.348 72.100 M179.300 116.886 C 181.445 117.145,183.200 117.502,183.200 117.679 C 183.200 117.856,183.909 118.000,184.776 118.000 C 185.643 118.000,186.464 118.180,186.600 118.400 C 186.736 118.620,187.289 118.800,187.829 118.800 C 188.369 118.800,189.123 118.964,189.505 119.164 C 189.887 119.365,191.280 120.040,192.600 120.664 C 193.920 121.289,195.060 121.935,195.133 122.100 C 195.207 122.265,195.455 122.400,195.686 122.400 C 195.916 122.400,196.966 123.019,198.020 123.776 C 203.790 127.922,208.555 134.050,211.410 141.000 C 211.771 141.880,212.232 142.913,212.434 143.295 C 212.635 143.677,212.800 144.431,212.800 144.971 C 212.800 145.511,212.980 146.064,213.200 146.200 C 213.420 146.336,213.600 147.056,213.600 147.800 C 213.600 148.544,213.780 149.264,214.000 149.400 C 214.220 149.536,214.400 150.165,214.400 150.798 C 214.400 151.430,214.595 152.455,214.834 153.074 C 216.002 156.104,216.117 163.446,216.267 244.400 C 216.351 289.830,216.317 327.424,216.192 327.941 C 215.912 329.098,214.463 328.937,211.263 327.393 C 210.130 326.847,208.933 326.400,208.602 326.400 C 208.271 326.400,208.000 326.220,208.000 326.000 C 208.000 325.780,207.651 325.600,207.224 325.600 C 206.797 325.600,206.336 325.420,206.200 325.200 C 206.064 324.980,205.620 324.800,205.213 324.800 C 204.807 324.800,203.512 324.329,202.337 323.752 C 200.336 322.771,199.806 322.541,197.500 321.654 C 195.337 320.821,192.090 319.422,189.825 318.347 C 188.959 317.936,188.011 317.600,187.719 317.600 C 187.428 317.600,186.877 317.440,186.495 317.245 C 185.525 316.749,181.206 314.798,180.000 314.310 C 179.450 314.088,178.550 313.669,178.000 313.378 L 177.000 312.850 176.795 240.725 C 176.631 182.848,176.487 168.284,176.067 167.000 C 175.779 166.120,175.362 164.770,175.139 164.000 C 173.502 158.349,167.914 152.400,164.242 152.400 C 163.757 152.400,163.169 152.209,162.936 151.976 C 162.136 151.176,150.322 151.955,149.773 152.844 C 149.652 153.040,149.203 153.200,148.776 153.200 C 148.349 153.200,148.000 153.360,148.000 153.557 C 148.000 153.753,147.582 154.018,147.070 154.147 C 145.868 154.448,141.833 158.113,140.418 160.188 C 138.640 162.797,137.200 165.572,137.200 166.391 C 137.200 166.810,137.020 167.264,136.800 167.400 C 136.580 167.536,136.400 168.256,136.400 169.000 C 136.400 169.744,136.220 170.464,136.000 170.600 C 135.736 170.763,135.600 191.861,135.600 232.595 C 135.600 288.196,135.537 294.405,134.971 294.971 C 134.186 295.756,134.440 295.789,131.711 294.559 C 130.440 293.986,128.995 293.356,128.500 293.159 C 126.181 292.234,122.950 290.854,121.905 290.341 C 121.523 290.154,120.938 290.000,120.605 290.000 C 120.272 290.000,120.000 289.820,120.000 289.600 C 120.000 289.380,119.550 289.200,119.000 289.200 C 118.450 289.200,118.000 289.020,118.000 288.800 C 118.000 288.580,117.674 288.400,117.275 288.400 C 116.876 288.400,115.841 288.064,114.975 287.653 C 113.291 286.854,110.770 285.746,109.300 285.159 C 107.231 284.334,106.134 283.888,105.000 283.414 C 104.340 283.138,103.350 282.731,102.800 282.510 C 100.711 281.668,99.567 281.185,98.600 280.732 L 97.600 280.265 97.600 209.332 C 97.600 139.386,97.611 138.400,98.376 138.400 C 98.803 138.400,99.264 138.220,99.400 138.000 C 99.536 137.780,100.177 137.600,100.824 137.600 C 101.471 137.600,102.000 137.420,102.000 137.200 C 102.000 136.980,102.288 136.800,102.640 136.800 C 103.236 136.800,105.298 136.008,106.895 135.166 C 107.277 134.965,107.941 134.800,108.371 134.800 C 108.801 134.800,109.264 134.620,109.400 134.400 C 109.536 134.180,109.999 134.000,110.429 134.000 C 110.859 134.000,111.523 133.842,111.905 133.649 C 113.760 132.711,115.704 132.000,116.414 132.000 C 116.846 132.000,117.200 131.820,117.200 131.600 C 117.200 131.380,117.639 131.200,118.176 131.200 C 118.713 131.200,119.264 131.020,119.400 130.800 C 119.536 130.580,120.076 130.400,120.600 130.400 C 121.124 130.400,121.664 130.220,121.800 130.000 C 121.936 129.780,122.399 129.600,122.829 129.600 C 123.259 129.600,123.923 129.438,124.305 129.241 C 124.687 129.044,125.810 128.575,126.800 128.200 C 127.790 127.825,128.913 127.356,129.295 127.159 C 129.677 126.962,130.316 126.800,130.715 126.800 C 131.114 126.800,131.644 126.596,131.893 126.347 C 133.268 124.972,133.600 126.200,133.609 132.687 C 133.618 138.736,133.645 138.946,134.255 137.709 C 134.604 137.000,135.320 135.955,135.845 135.389 C 136.370 134.822,136.800 134.194,136.800 133.992 C 136.800 133.493,143.760 126.487,146.029 124.702 C 147.692 123.393,149.417 122.402,155.495 119.262 C 155.987 119.008,156.741 118.800,157.171 118.800 C 157.601 118.800,158.064 118.620,158.200 118.400 C 158.336 118.180,158.966 118.000,159.600 118.000 C 160.234 118.000,160.845 117.850,160.959 117.667 C 161.072 117.484,163.017 117.106,165.282 116.826 C 167.547 116.547,169.580 116.251,169.800 116.168 C 170.305 115.977,174.260 116.276,179.300 116.886 M67.895 208.400 C 67.947 240.555,67.835 266.843,67.644 267.144 C 67.295 267.693,64.824 267.160,63.820 266.318 C 63.611 266.143,63.116 266.000,62.720 266.000 C 62.324 266.000,62.000 265.820,62.000 265.600 C 62.000 265.380,61.638 265.200,61.195 265.200 C 60.752 265.200,60.077 265.035,59.695 264.833 C 58.827 264.374,53.357 261.980,51.300 261.159 C 50.376 260.790,49.107 260.267,47.000 259.386 C 46.340 259.110,45.350 258.709,44.800 258.496 C 41.760 257.314,40.186 256.657,37.489 255.441 C 36.218 254.869,34.913 254.400,34.589 254.400 C 34.265 254.400,34.000 254.220,34.000 254.000 C 34.000 253.780,33.569 253.600,33.043 253.600 C 31.560 253.600,31.600 254.866,31.600 207.656 C 31.600 158.486,31.451 161.600,33.810 161.600 C 34.140 161.600,34.723 161.438,35.105 161.241 C 35.487 161.044,36.610 160.575,37.600 160.200 C 38.590 159.825,39.713 159.356,40.095 159.159 C 40.477 158.962,41.141 158.800,41.571 158.800 C 42.001 158.800,42.464 158.620,42.600 158.400 C 42.736 158.180,43.199 158.000,43.629 158.000 C 44.059 158.000,44.723 157.838,45.105 157.641 C 45.487 157.444,46.610 156.975,47.600 156.600 C 48.590 156.225,49.713 155.756,50.095 155.559 C 50.477 155.362,51.141 155.200,51.571 155.200 C 52.001 155.200,52.464 155.020,52.600 154.800 C 52.736 154.580,53.199 154.400,53.629 154.400 C 54.059 154.400,54.723 154.226,55.105 154.013 C 55.487 153.800,56.610 153.355,57.600 153.026 C 60.850 151.943,62.381 151.352,62.659 151.074 C 62.810 150.923,63.343 150.800,63.843 150.800 C 64.343 150.800,64.870 150.610,65.014 150.377 C 65.158 150.145,65.843 150.010,66.538 150.077 L 67.800 150.200 67.895 208.400 " stroke="none" fill="#e40c84" fill-rule="evenodd"></path><path id="path2" d="M285.898 71.862 L 286.796 72.055 286.898 106.094 C 286.987 135.954,287.074 140.153,287.600 140.297 C 288.042 140.418,288.069 140.368,287.702 140.108 C 287.313 139.833,287.182 132.327,287.102 105.778 L 287.000 71.800 286.000 71.734 C 285.123 71.677,285.111 71.693,285.898 71.862 M170.500 116.687 C 171.105 116.778,172.095 116.778,172.700 116.687 C 173.305 116.595,172.810 116.520,171.600 116.520 C 170.390 116.520,169.895 116.595,170.500 116.687 M166.900 117.076 C 167.285 117.176,167.915 117.176,168.300 117.076 C 168.685 116.975,168.370 116.893,167.600 116.893 C 166.830 116.893,166.515 116.975,166.900 117.076 M175.105 117.083 C 175.602 117.179,176.322 117.175,176.705 117.075 C 177.087 116.975,176.680 116.896,175.800 116.901 C 174.920 116.905,174.607 116.987,175.105 117.083 M180.433 117.344 C 180.525 117.423,181.140 117.608,181.800 117.756 C 182.676 117.952,182.838 117.915,182.400 117.618 C 181.860 117.253,180.032 116.998,180.433 117.344 M158.800 118.418 C 158.362 118.715,158.524 118.752,159.400 118.556 C 160.871 118.227,161.190 117.998,160.167 118.006 C 159.745 118.009,159.130 118.195,158.800 118.418 M183.633 118.143 C 183.725 118.221,184.430 118.401,185.200 118.542 C 186.185 118.723,186.422 118.682,186.000 118.406 C 185.458 118.050,183.237 117.803,183.633 118.143 M156.000 119.400 C 154.694 120.147,155.151 120.155,156.854 119.416 C 157.594 119.094,157.930 118.831,157.600 118.830 C 157.270 118.829,156.550 119.086,156.000 119.400 M320.433 120.946 C 320.525 121.026,322.760 121.179,325.400 121.286 C 328.286 121.402,329.562 121.353,328.600 121.163 C 327.014 120.849,320.113 120.666,320.433 120.946 M202.200 128.000 C 203.283 129.100,204.260 130.000,204.370 130.000 C 204.480 130.000,203.683 129.100,202.600 128.000 C 201.517 126.900,200.540 126.000,200.430 126.000 C 200.320 126.000,201.117 126.900,202.200 128.000 M141.986 128.700 L 139.800 131.000 142.100 128.814 C 144.237 126.782,144.583 126.400,144.286 126.400 C 144.224 126.400,143.189 127.435,141.986 128.700 M133.360 133.000 C 133.361 136.300,133.422 137.597,133.498 135.882 C 133.573 134.167,133.572 131.467,133.497 129.882 C 133.421 128.297,133.359 129.700,133.360 133.000 M355.000 132.800 C 356.306 134.120,357.465 135.200,357.575 135.200 C 357.685 135.200,356.706 134.120,355.400 132.800 C 354.094 131.480,352.935 130.400,352.825 130.400 C 352.715 130.400,353.694 131.480,355.000 132.800 M293.186 133.100 L 291.000 135.400 293.300 133.214 C 295.437 131.182,295.783 130.800,295.486 130.800 C 295.424 130.800,294.389 131.835,293.186 133.100 M99.600 138.200 C 98.294 138.947,98.751 138.955,100.454 138.216 C 101.194 137.894,101.530 137.631,101.200 137.630 C 100.870 137.629,100.150 137.886,99.600 138.200 M97.785 139.300 C 97.680 139.575,97.641 171.390,97.697 210.000 L 97.800 280.200 98.000 209.500 C 98.110 170.615,98.149 138.800,98.087 138.800 C 98.026 138.800,97.889 139.025,97.785 139.300 M166.833 152.930 C 166.925 153.001,167.630 153.466,168.400 153.963 L 169.800 154.866 168.600 153.835 C 167.940 153.268,167.235 152.803,167.033 152.802 C 166.832 152.801,166.742 152.858,166.833 152.930 M170.000 154.925 C 170.000 154.994,170.585 155.579,171.300 156.225 L 172.600 157.400 171.425 156.100 C 170.330 154.888,170.000 154.616,170.000 154.925 M308.905 155.487 C 309.514 155.579,310.414 155.577,310.905 155.482 C 311.397 155.387,310.900 155.311,309.800 155.314 C 308.700 155.317,308.297 155.395,308.905 155.487 M322.000 159.325 C 322.000 159.394,322.585 159.979,323.300 160.625 L 324.600 161.800 323.425 160.500 C 322.330 159.288,322.000 159.016,322.000 159.325 M368.193 207.000 C 368.193 230.100,368.241 239.491,368.300 227.869 C 368.359 216.248,368.359 197.348,368.300 185.869 C 368.241 174.391,368.193 183.900,368.193 207.000 M176.920 172.400 C 176.920 173.610,176.995 174.105,177.087 173.500 C 177.178 172.895,177.178 171.905,177.087 171.300 C 176.995 170.695,176.920 171.190,176.920 172.400 M134.899 234.471 C 134.805 291.487,134.762 294.751,134.100 294.924 C 133.444 295.096,133.445 295.110,134.113 295.154 C 135.240 295.227,135.210 297.069,135.101 234.200 L 134.997 174.200 134.899 234.471 M177.395 243.600 C 177.395 281.550,177.443 297.075,177.500 278.100 C 177.557 259.125,177.557 228.075,177.500 209.100 C 177.443 190.125,177.395 205.650,177.395 243.600 M328.992 212.200 C 328.992 232.440,329.040 240.779,329.100 230.730 C 329.159 220.682,329.159 204.122,329.100 193.930 C 329.040 183.739,328.992 191.960,328.992 212.200 M286.720 178.100 C 286.676 178.155,286.541 194.220,286.420 213.800 L 286.200 249.400 267.446 249.504 C 252.843 249.585,248.549 249.496,248.046 249.104 C 247.472 248.656,247.461 248.678,247.949 249.300 C 248.672 250.222,285.572 250.398,286.331 249.483 C 286.698 249.041,287.264 178.000,286.900 178.000 C 286.845 178.000,286.764 178.045,286.720 178.100 M329.738 249.694 C 330.348 250.082,367.498 250.088,367.738 249.700 C 367.840 249.535,359.228 249.400,348.600 249.400 C 337.972 249.400,329.484 249.532,329.738 249.694 " stroke="none" fill="#e96da6" fill-rule="evenodd"></path><path id="path3" d="M282.200 72.995 C 278.482 74.420,277.761 74.747,278.281 74.775 C 278.546 74.789,279.266 74.598,279.881 74.350 C 280.497 74.103,281.360 73.755,281.800 73.578 C 282.240 73.401,283.275 73.049,284.100 72.797 C 285.577 72.345,286.079 71.964,285.100 72.038 C 284.825 72.058,283.520 72.489,282.200 72.995 M286.304 106.832 C 286.387 134.316,286.513 141.630,286.904 141.502 C 287.177 141.413,288.077 140.363,288.904 139.170 C 291.587 135.301,296.095 130.955,300.135 128.344 C 302.808 126.616,303.528 126.022,302.000 126.803 C 297.579 129.064,290.735 135.271,288.729 138.840 C 287.013 141.894,287.005 141.751,286.898 106.067 C 286.842 87.330,286.662 72.000,286.498 72.000 C 286.334 72.000,286.247 87.674,286.304 106.832 M271.311 76.922 C 269.502 77.600,268.093 78.227,268.181 78.314 C 268.347 78.480,275.202 76.131,275.541 75.792 C 275.992 75.342,274.381 75.772,271.311 76.922 M263.800 79.591 C 263.360 79.776,261.920 80.322,260.600 80.804 C 259.280 81.286,257.699 81.866,257.087 82.094 C 256.475 82.322,256.070 82.604,256.188 82.721 C 256.305 82.838,256.806 82.734,257.301 82.490 C 257.795 82.245,259.531 81.580,261.157 81.011 C 264.090 79.985,265.769 79.211,265.000 79.239 C 264.780 79.247,264.240 79.406,263.800 79.591 M251.780 83.930 C 251.571 84.112,250.634 84.501,249.698 84.795 C 248.762 85.089,248.070 85.403,248.160 85.493 C 248.347 85.680,251.814 84.552,252.769 83.994 C 253.331 83.665,253.332 83.623,252.780 83.612 C 252.439 83.605,251.989 83.749,251.780 83.930 M247.699 167.251 C 247.616 235.657,247.687 248.775,248.146 249.155 C 248.539 249.481,253.931 249.579,267.446 249.504 L 286.200 249.400 286.464 214.000 C 286.609 194.530,286.823 177.700,286.938 176.600 L 287.148 174.600 286.724 176.400 C 286.449 177.567,286.240 190.681,286.130 213.704 L 285.960 249.208 267.080 249.104 L 248.200 249.000 247.999 167.400 L 247.797 85.800 247.699 167.251 M166.600 117.203 C 164.631 117.452,164.918 117.485,168.200 117.386 C 171.884 117.275,179.043 117.675,182.400 118.179 C 183.444 118.336,183.321 118.249,181.917 117.840 C 179.656 117.181,169.956 116.777,166.600 117.203 M161.600 118.000 L 160.600 118.320 161.600 118.354 C 162.150 118.373,162.870 118.213,163.200 118.000 C 163.964 117.506,163.142 117.506,161.600 118.000 M158.600 118.800 C 158.096 119.017,158.022 119.144,158.400 119.144 C 158.730 119.144,159.360 118.989,159.800 118.800 C 160.304 118.583,160.378 118.456,160.000 118.456 C 159.670 118.456,159.040 118.611,158.600 118.800 M185.000 118.800 C 185.440 118.989,186.070 119.144,186.400 119.144 C 186.778 119.144,186.704 119.017,186.200 118.800 C 185.760 118.611,185.130 118.456,184.800 118.456 C 184.422 118.456,184.496 118.583,185.000 118.800 M156.000 119.703 C 152.269 121.376,151.585 121.719,151.715 121.849 C 151.850 121.984,152.746 121.612,156.400 119.905 C 157.170 119.545,157.620 119.252,157.400 119.253 C 157.180 119.253,156.550 119.456,156.000 119.703 M187.200 119.369 C 187.200 119.462,187.875 119.757,188.700 120.024 C 195.897 122.356,203.132 128.128,207.253 134.825 C 208.487 136.830,209.220 137.545,208.355 135.900 C 206.284 131.961,201.458 126.758,197.202 123.874 C 193.718 121.514,187.200 118.578,187.200 119.369 M318.000 121.565 C 316.790 121.694,319.580 121.800,324.200 121.801 C 329.185 121.802,331.462 121.700,329.800 121.551 C 326.373 121.243,320.956 121.250,318.000 121.565 M313.400 122.400 L 312.600 122.744 313.400 122.744 C 313.840 122.744,314.560 122.589,315.000 122.400 L 315.800 122.056 315.000 122.056 C 314.560 122.056,313.840 122.211,313.400 122.400 M333.600 122.400 C 333.930 122.613,334.650 122.778,335.200 122.766 C 336.116 122.746,336.133 122.715,335.400 122.400 C 334.216 121.891,332.813 121.891,333.600 122.400 M146.800 124.846 C 142.159 128.470,136.428 134.400,137.566 134.400 C 137.805 134.400,138.000 134.258,138.000 134.084 C 138.000 133.343,143.449 127.886,146.300 125.772 C 150.042 122.997,150.276 122.798,149.780 122.808 C 149.571 122.812,148.230 123.729,146.800 124.846 M310.400 123.200 C 309.867 123.545,309.867 123.588,310.400 123.588 C 310.730 123.588,311.270 123.413,311.600 123.200 C 312.133 122.855,312.133 122.812,311.600 122.812 C 311.270 122.812,310.730 122.987,310.400 123.200 M337.400 123.200 C 338.596 123.714,339.595 123.714,338.800 123.200 C 338.470 122.987,337.840 122.822,337.400 122.834 L 336.600 122.856 337.400 123.200 M307.800 124.021 C 307.360 124.223,306.120 124.755,305.043 125.204 C 303.967 125.653,303.185 126.118,303.304 126.238 C 303.424 126.357,303.855 126.259,304.261 126.019 C 304.667 125.780,306.080 125.145,307.400 124.609 C 308.720 124.072,309.530 123.638,309.200 123.644 C 308.870 123.650,308.240 123.819,307.800 124.021 M339.600 123.746 C 339.600 123.827,340.725 124.297,342.100 124.791 C 343.475 125.284,344.771 125.849,344.980 126.044 C 345.189 126.240,345.544 126.400,345.769 126.400 C 346.453 126.400,344.727 125.399,342.447 124.474 C 340.374 123.633,339.600 123.435,339.600 123.746 M346.400 126.543 C 346.400 126.622,347.520 127.378,348.890 128.223 C 351.308 129.716,356.500 134.570,358.278 137.000 C 358.761 137.660,359.166 138.001,359.178 137.759 C 359.221 136.899,352.816 130.511,349.865 128.471 C 347.093 126.555,346.400 126.169,346.400 126.543 M128.000 128.235 C 122.436 130.289,121.958 130.492,122.176 130.710 C 122.300 130.833,122.806 130.733,123.301 130.487 C 123.795 130.240,125.640 129.552,127.400 128.956 C 129.160 128.361,130.771 127.722,130.980 127.537 C 131.571 127.013,130.858 127.180,128.000 128.235 M114.911 132.922 C 113.102 133.600,111.693 134.227,111.781 134.314 C 111.947 134.480,118.802 132.131,119.141 131.792 C 119.592 131.342,117.981 131.772,114.911 132.922 M136.000 136.000 C 135.530 136.660,135.236 137.200,135.346 137.200 C 135.456 137.200,135.930 136.660,136.400 136.000 C 136.870 135.340,137.164 134.800,137.054 134.800 C 136.944 134.800,136.470 135.340,136.000 136.000 M107.200 135.675 C 105.244 136.498,104.582 136.753,103.110 137.250 C 102.291 137.527,101.692 137.825,101.780 137.913 C 101.987 138.120,108.082 135.998,108.580 135.545 C 109.089 135.083,108.468 135.141,107.200 135.675 M208.800 137.236 C 208.800 137.353,209.138 138.159,209.551 139.025 C 209.964 139.891,210.710 141.729,211.208 143.110 C 211.706 144.490,212.202 145.532,212.308 145.425 C 212.539 145.195,210.096 138.946,209.331 137.811 C 209.039 137.377,208.800 137.118,208.800 137.236 M134.346 138.560 C 133.996 139.326,133.771 139.480,133.537 139.111 C 133.299 138.737,133.211 138.788,133.206 139.300 C 133.203 139.685,133.359 140.000,133.554 140.000 C 134.018 140.000,135.328 137.994,135.047 137.714 C 134.928 137.594,134.612 137.975,134.346 138.560 M359.877 139.400 C 360.316 140.060,361.333 141.950,362.136 143.600 C 362.939 145.250,363.597 146.373,363.598 146.095 C 363.599 145.817,363.440 145.277,363.245 144.895 C 363.049 144.513,362.396 143.210,361.792 142.000 C 361.189 140.790,360.331 139.440,359.887 139.000 L 359.078 138.200 359.877 139.400 M212.412 146.400 C 212.412 146.730,212.587 147.270,212.800 147.600 C 213.145 148.133,213.188 148.133,213.188 147.600 C 213.188 147.270,213.013 146.730,212.800 146.400 C 212.455 145.867,212.412 145.867,212.412 146.400 M213.342 150.200 C 213.886 152.799,214.790 158.284,214.924 159.800 C 215.049 161.217,215.073 161.164,215.133 159.339 C 215.200 157.273,213.876 149.724,213.363 149.251 C 213.213 149.113,213.204 149.540,213.342 150.200 M65.200 150.830 C 64.754 151.141,64.933 151.183,65.900 150.992 L 67.200 150.736 67.200 208.568 C 67.200 260.509,67.137 266.400,66.581 266.400 C 66.240 266.400,65.216 266.040,64.306 265.600 C 63.395 265.160,62.459 264.809,62.225 264.821 C 61.991 264.833,62.700 265.289,63.800 265.835 C 67.830 267.835,67.386 274.713,67.501 208.500 L 67.603 150.400 66.701 150.406 C 66.206 150.409,65.530 150.600,65.200 150.830 M154.600 150.820 C 153.060 150.969,151.350 151.299,150.800 151.554 C 149.824 152.006,149.829 152.011,151.000 151.777 C 155.286 150.919,161.140 150.921,164.800 151.781 C 165.350 151.910,165.170 151.770,164.400 151.469 C 162.604 150.768,158.175 150.474,154.600 150.820 M365.362 152.200 C 365.512 152.860,365.827 154.210,366.064 155.200 C 366.300 156.190,366.630 157.720,366.797 158.600 C 367.062 159.999,367.105 160.049,367.144 159.000 C 367.190 157.741,365.770 151.621,365.340 151.228 C 365.203 151.103,365.213 151.540,365.362 152.200 M59.058 152.931 C 57.770 153.393,56.932 153.844,57.197 153.932 C 57.462 154.021,58.066 153.909,58.539 153.683 C 59.013 153.458,60.120 152.996,61.000 152.657 C 63.405 151.731,61.751 151.964,59.058 152.931 M144.800 154.445 C 140.881 157.651,136.013 164.146,136.879 165.012 C 136.996 165.130,137.330 164.635,137.620 163.913 C 138.901 160.724,141.806 157.229,145.426 154.522 C 146.072 154.039,146.420 153.640,146.200 153.636 C 145.980 153.631,145.350 153.995,144.800 154.445 M170.134 154.879 C 170.977 155.568,172.282 157.045,173.034 158.161 C 173.785 159.276,174.400 160.040,174.400 159.856 C 174.400 158.898,169.821 153.588,169.017 153.613 C 168.788 153.621,169.290 154.190,170.134 154.879 M306.200 155.164 C 305.320 155.302,306.939 155.418,309.800 155.421 C 313.255 155.426,314.396 155.332,313.200 155.144 C 311.075 154.808,308.424 154.816,306.200 155.164 M50.400 156.007 C 50.070 156.205,48.671 156.760,47.290 157.241 C 45.910 157.721,44.869 158.202,44.976 158.309 C 45.083 158.417,46.123 158.138,47.286 157.691 C 48.449 157.243,50.120 156.599,51.000 156.259 C 51.900 155.911,52.250 155.642,51.800 155.644 C 51.360 155.646,50.730 155.809,50.400 156.007 M302.600 156.000 L 301.800 156.344 302.600 156.366 C 303.040 156.378,303.670 156.213,304.000 156.000 C 304.795 155.486,303.796 155.486,302.600 156.000 M315.600 156.000 C 315.930 156.213,316.470 156.388,316.800 156.388 C 317.333 156.388,317.333 156.345,316.800 156.000 C 316.470 155.787,315.930 155.612,315.600 155.612 C 315.067 155.612,315.067 155.655,315.600 156.000 M298.646 157.698 C 295.152 159.593,288.805 166.538,289.725 167.459 C 289.805 167.539,290.348 166.726,290.932 165.653 C 291.926 163.828,297.190 158.400,297.967 158.400 C 298.160 158.400,299.102 157.952,300.059 157.405 C 302.602 155.951,301.411 156.198,298.646 157.698 M320.600 158.110 C 323.102 159.954,324.450 161.482,325.794 164.000 C 326.557 165.430,327.186 166.392,327.191 166.138 C 327.224 164.438,321.290 157.177,319.897 157.213 C 319.623 157.220,319.940 157.623,320.600 158.110 M40.119 159.762 C 38.559 160.330,37.804 161.018,39.200 160.600 C 40.377 160.247,42.380 159.218,41.800 159.264 C 41.580 159.281,40.824 159.505,40.119 159.762 M367.474 163.400 C 367.597 165.160,367.765 166.675,367.849 166.767 C 368.132 167.079,367.907 162.605,367.578 161.400 C 367.378 160.664,367.337 161.438,367.474 163.400 M35.800 161.221 C 35.360 161.422,34.480 161.775,33.845 162.005 C 33.209 162.234,32.781 162.514,32.893 162.626 C 33.005 162.738,33.615 162.621,34.248 162.365 C 36.665 161.390,37.017 161.253,37.600 161.061 C 38.000 160.929,37.933 160.862,37.400 160.859 C 36.960 160.856,36.240 161.019,35.800 161.221 M215.158 244.900 C 215.053 300.192,215.134 327.955,215.400 327.867 C 215.906 327.698,216.153 173.521,215.658 166.600 C 215.448 163.650,215.255 193.824,215.158 244.900 M175.378 163.000 C 175.914 164.448,176.733 167.775,176.904 169.200 L 177.072 170.600 177.136 169.062 C 177.206 167.376,176.156 163.236,175.497 162.600 C 175.213 162.326,175.176 162.452,175.378 163.000 M32.098 207.420 C 31.999 252.850,32.008 253.200,33.356 253.200 C 33.575 253.200,33.448 252.975,33.076 252.700 C 32.448 252.236,32.391 248.955,32.298 207.400 L 32.197 162.600 32.098 207.420 M135.400 168.800 C 135.248 169.491,135.214 170.147,135.324 170.257 C 135.434 170.367,135.648 169.891,135.800 169.200 C 135.952 168.509,135.986 167.853,135.876 167.743 C 135.766 167.633,135.552 168.109,135.400 168.800 M328.237 170.200 C 328.376 171.080,328.625 172.700,328.789 173.800 L 329.087 175.800 329.138 174.000 C 329.165 173.010,328.917 171.390,328.586 170.400 L 327.984 168.600 328.237 170.200 M134.711 170.833 C 134.662 170.925,134.527 198.720,134.411 232.600 L 134.200 294.200 133.200 294.065 C 132.650 293.991,132.029 293.766,131.820 293.565 C 131.611 293.364,131.161 293.215,130.820 293.232 C 130.022 293.274,133.175 294.776,134.089 294.790 C 134.738 294.799,134.785 291.174,134.889 232.900 C 134.991 175.891,134.975 170.340,134.711 170.833 M177.423 173.760 C 177.520 175.499,177.600 207.487,177.600 244.846 L 177.600 312.772 178.434 313.218 C 178.893 313.464,179.380 313.553,179.517 313.417 C 179.653 313.280,179.368 313.064,178.883 312.937 L 178.000 312.707 177.960 243.853 C 177.939 205.984,177.769 174.010,177.583 172.800 C 177.282 170.838,177.265 170.942,177.423 173.760 M287.473 172.553 C 287.323 172.945,287.211 173.566,287.225 173.933 C 287.242 174.375,287.381 174.274,287.637 173.634 C 287.849 173.103,287.961 172.482,287.885 172.254 C 287.809 172.027,287.624 172.161,287.473 172.553 M329.298 212.492 L 329.200 249.185 330.100 249.403 C 332.144 249.900,367.730 249.416,367.837 248.890 C 367.894 248.610,367.849 248.565,367.737 248.790 C 367.493 249.281,330.872 249.361,330.102 248.872 C 329.712 248.624,329.582 240.669,329.500 212.178 L 329.396 175.800 329.298 212.492 M35.000 253.814 C 38.617 255.509,40.051 256.082,40.230 255.904 C 40.339 255.794,39.387 255.293,38.114 254.790 C 36.841 254.287,35.629 253.723,35.420 253.538 C 35.211 253.352,34.761 253.212,34.420 253.226 C 34.079 253.240,34.340 253.504,35.000 253.814 M44.800 257.884 C 48.516 259.634,48.792 259.741,49.012 259.521 C 49.130 259.404,48.635 259.082,47.913 258.806 C 47.191 258.531,45.837 257.967,44.904 257.553 C 42.358 256.422,42.272 256.694,44.800 257.884 M53.266 261.400 C 53.469 261.603,61.202 264.800,61.490 264.800 C 62.054 264.800,61.018 264.041,60.160 263.826 C 59.149 263.572,56.141 262.326,54.705 261.567 C 53.974 261.181,52.925 261.058,53.266 261.400 M98.000 279.495 C 98.000 279.884,99.614 280.919,99.851 280.682 C 99.947 280.586,99.569 280.210,99.012 279.845 C 98.456 279.480,98.000 279.322,98.000 279.495 M103.346 282.202 C 103.976 282.531,104.696 282.799,104.946 282.798 C 105.196 282.796,104.884 282.526,104.254 282.198 C 103.624 281.869,102.904 281.601,102.654 281.602 C 102.404 281.604,102.716 281.874,103.346 282.202 M109.233 284.561 C 109.589 284.904,117.330 288.003,117.474 287.860 C 117.557 287.776,117.035 287.472,116.313 287.183 C 115.591 286.895,113.870 286.151,112.490 285.530 C 110.291 284.540,108.731 284.076,109.233 284.561 M121.000 289.414 C 121.660 289.723,123.100 290.359,124.200 290.828 C 125.300 291.296,126.560 291.838,127.000 292.032 C 128.727 292.791,130.180 293.232,129.800 292.881 C 129.580 292.678,127.690 291.825,125.600 290.986 C 123.510 290.147,121.629 289.312,121.420 289.131 C 121.211 288.949,120.761 288.812,120.420 288.826 C 120.079 288.840,120.340 289.104,121.000 289.414 M180.800 314.200 C 181.350 314.514,182.070 314.777,182.400 314.783 C 182.730 314.790,182.484 314.526,181.854 314.198 C 180.394 313.436,179.467 313.438,180.800 314.200 M183.200 314.989 C 183.200 315.306,186.100 316.433,186.328 316.205 C 186.441 316.092,186.435 316.000,186.316 316.000 C 186.196 316.000,185.446 315.728,184.649 315.395 C 183.852 315.062,183.200 314.879,183.200 314.989 M189.800 317.774 C 192.576 319.167,194.844 320.089,195.033 319.901 C 195.144 319.790,194.012 319.207,192.517 318.605 C 189.232 317.282,188.179 316.960,189.800 317.774 M200.400 322.252 C 201.170 322.601,202.205 323.077,202.699 323.311 C 203.194 323.544,203.695 323.638,203.812 323.521 C 203.930 323.404,203.435 323.088,202.713 322.820 C 201.991 322.553,201.087 322.168,200.705 321.967 C 200.323 321.765,199.783 321.604,199.505 321.609 C 199.227 321.614,199.630 321.904,200.400 322.252 M208.058 325.392 C 208.387 325.721,214.119 328.014,214.260 327.873 C 214.334 327.800,213.450 327.337,212.297 326.844 C 211.144 326.351,209.887 325.780,209.505 325.574 C 208.787 325.187,207.720 325.053,208.058 325.392 " stroke="none" fill="#ec94bc" fill-rule="evenodd"></path><path id="path4" d="M283.200 72.200 C 281.894 72.947,282.351 72.955,284.054 72.216 C 284.794 71.894,285.130 71.631,284.800 71.630 C 284.470 71.629,283.750 71.886,283.200 72.200 M287.292 106.100 C 287.242 124.745,287.335 140.000,287.500 140.000 C 287.770 140.000,287.765 105.728,287.491 81.600 C 287.433 76.430,287.343 87.455,287.292 106.100 M273.200 75.590 C 272.870 75.779,272.009 76.153,271.287 76.421 C 270.565 76.689,270.035 76.969,270.110 77.043 C 270.243 77.176,274.839 75.633,275.167 75.346 C 275.510 75.045,273.776 75.261,273.200 75.590 M260.800 80.200 C 259.494 80.947,259.951 80.955,261.654 80.216 C 262.394 79.894,262.730 79.631,262.400 79.630 C 262.070 79.629,261.350 79.886,260.800 80.200 M250.800 83.677 C 248.202 84.777,247.236 85.418,247.032 86.177 C 246.600 87.786,246.779 248.414,247.214 249.226 C 247.442 249.652,247.824 250.000,248.063 250.000 C 248.369 250.000,248.364 249.839,248.048 249.458 C 247.717 249.059,247.625 227.277,247.699 167.233 L 247.800 85.550 248.800 85.005 C 249.350 84.705,250.520 84.186,251.400 83.851 C 252.280 83.515,252.730 83.244,252.400 83.248 C 252.070 83.251,251.350 83.445,250.800 83.677 M170.700 116.282 C 171.195 116.378,172.005 116.378,172.500 116.282 C 172.995 116.187,172.590 116.109,171.600 116.109 C 170.610 116.109,170.205 116.187,170.700 116.282 M165.200 116.821 C 164.299 117.024,164.797 117.059,166.600 116.919 C 168.140 116.799,169.475 116.634,169.567 116.551 C 169.852 116.292,166.671 116.489,165.200 116.821 M173.633 116.551 C 173.725 116.635,175.240 116.802,177.000 116.923 C 179.406 117.088,179.753 117.058,178.400 116.801 C 176.550 116.450,173.336 116.281,173.633 116.551 M161.000 117.600 C 160.708 118.073,161.099 118.073,162.200 117.600 C 162.971 117.269,162.969 117.255,162.124 117.228 C 161.642 117.213,161.136 117.380,161.000 117.600 M189.200 119.445 C 189.970 119.790,190.933 120.249,191.339 120.464 C 191.745 120.679,192.150 120.783,192.238 120.695 C 192.327 120.607,191.904 120.303,191.299 120.021 C 190.695 119.738,189.887 119.348,189.505 119.153 C 189.123 118.959,188.583 118.804,188.305 118.809 C 188.027 118.814,188.430 119.100,189.200 119.445 M317.600 121.221 C 317.170 121.514,317.454 121.554,318.600 121.362 C 320.584 121.030,320.904 120.798,319.367 120.806 C 318.725 120.809,317.930 120.996,317.600 121.221 M327.633 120.943 C 328.050 121.302,330.797 121.519,330.585 121.176 C 330.457 120.969,329.703 120.800,328.910 120.800 C 328.116 120.800,327.542 120.865,327.633 120.943 M148.600 122.882 C 147.468 123.530,142.505 127.507,142.187 128.021 C 142.042 128.256,143.357 127.312,145.110 125.924 C 146.863 124.536,148.635 123.186,149.049 122.924 C 150.013 122.312,149.654 122.279,148.600 122.882 M195.633 122.535 C 196.493 123.233,199.600 125.193,199.600 125.038 C 199.600 124.776,196.143 122.400,195.761 122.400 C 195.599 122.400,195.542 122.461,195.633 122.535 M306.800 123.833 C 305.448 124.584,306.411 124.555,307.854 123.802 C 308.484 123.474,308.730 123.221,308.400 123.242 C 308.070 123.262,307.350 123.528,306.800 123.833 M341.400 123.850 C 342.280 124.185,343.333 124.639,343.739 124.857 C 344.145 125.076,344.550 125.183,344.638 125.095 C 344.727 125.007,344.304 124.703,343.699 124.421 C 343.095 124.138,342.287 123.748,341.905 123.553 C 341.523 123.359,340.893 123.209,340.505 123.221 C 340.117 123.232,340.520 123.515,341.400 123.850 M131.772 126.446 C 131.556 126.795,131.680 126.855,132.202 126.654 C 132.638 126.487,133.083 126.582,133.298 126.886 C 133.575 127.278,133.622 127.258,133.497 126.800 C 133.289 126.034,132.168 125.804,131.772 126.446 M203.789 129.300 C 205.083 130.785,206.217 132.000,206.308 132.000 C 206.573 132.000,203.383 128.281,202.362 127.400 C 201.853 126.960,202.495 127.815,203.789 129.300 M299.501 127.537 C 298.896 127.901,298.401 128.347,298.401 128.527 C 298.400 128.707,298.940 128.470,299.600 128.000 C 301.377 126.734,301.315 126.442,299.501 127.537 M348.400 126.946 C 348.400 127.056,348.940 127.530,349.600 128.000 C 350.260 128.470,350.800 128.764,350.800 128.654 C 350.800 128.544,350.260 128.070,349.600 127.600 C 348.940 127.130,348.400 126.836,348.400 126.946 M351.600 129.265 C 351.930 129.589,353.460 131.007,355.000 132.416 L 357.800 134.977 355.600 132.657 C 354.390 131.382,352.860 129.964,352.200 129.507 C 351.540 129.049,351.270 128.941,351.600 129.265 M138.648 131.673 C 137.639 132.813,136.900 133.833,137.006 133.940 C 137.113 134.046,137.247 134.058,137.305 133.967 C 137.363 133.875,138.184 132.855,139.129 131.700 C 141.339 129.000,141.031 128.983,138.648 131.673 M295.185 130.829 L 293.800 132.058 295.300 130.981 C 296.626 130.030,297.057 129.600,296.685 129.600 C 296.622 129.600,295.947 130.153,295.185 130.829 M114.400 132.600 C 113.122 133.330,113.396 133.334,115.400 132.612 C 116.280 132.295,116.640 132.034,116.200 132.032 C 115.760 132.030,114.950 132.286,114.400 132.600 M290.501 135.500 C 289.091 137.312,288.390 138.603,289.577 137.200 C 290.924 135.607,292.071 134.000,291.861 134.000 C 291.754 134.000,291.142 134.675,290.501 135.500 M134.985 136.500 C 134.368 137.435,134.120 137.989,134.432 137.731 C 135.033 137.234,136.564 134.800,136.276 134.800 C 136.183 134.800,135.602 135.565,134.985 136.500 M358.093 136.000 C 358.368 136.440,358.731 136.800,358.900 136.800 C 359.069 136.800,358.982 136.440,358.707 136.000 C 358.432 135.560,358.069 135.200,357.900 135.200 C 357.731 135.200,357.818 135.560,358.093 136.000 M104.400 136.233 C 103.048 136.984,104.011 136.955,105.454 136.202 C 106.084 135.874,106.330 135.621,106.000 135.642 C 105.670 135.662,104.950 135.928,104.400 136.233 M67.600 208.520 L 67.800 267.000 67.901 208.821 C 67.957 176.823,67.867 150.507,67.701 150.341 C 67.536 150.176,67.490 176.356,67.600 208.520 M152.000 151.859 C 150.743 152.364,150.723 152.395,151.800 152.157 C 152.460 152.011,155.160 151.771,157.800 151.622 L 162.600 151.351 158.000 151.323 C 154.915 151.305,152.939 151.481,152.000 151.859 M214.456 152.800 C 214.456 153.130,214.611 153.760,214.800 154.200 C 215.017 154.704,215.144 154.778,215.144 154.400 C 215.144 154.070,214.989 153.440,214.800 153.000 C 214.583 152.496,214.456 152.422,214.456 152.800 M170.968 156.400 C 173.064 158.843,173.485 159.226,172.504 157.800 C 172.050 157.140,171.171 156.150,170.550 155.600 C 169.801 154.936,169.941 155.204,170.968 156.400 M50.000 155.590 C 49.670 155.779,48.809 156.153,48.087 156.421 C 47.365 156.689,46.837 156.970,46.913 157.046 C 47.071 157.204,51.187 155.747,51.517 155.416 C 51.860 155.074,50.663 155.211,50.000 155.590 M143.293 156.500 C 141.723 157.781,137.751 163.084,138.100 163.433 C 138.198 163.532,138.938 162.545,139.743 161.240 C 140.548 159.935,142.125 158.042,143.247 157.034 C 145.603 154.916,145.631 154.593,143.293 156.500 M215.331 158.200 C 215.333 159.740,215.405 160.321,215.492 159.491 C 215.579 158.661,215.577 157.401,215.489 156.691 C 215.400 155.981,215.329 156.660,215.331 158.200 M307.516 155.897 C 308.899 155.975,311.059 155.974,312.316 155.895 C 313.572 155.816,312.440 155.752,309.800 155.753 C 307.160 155.753,306.132 155.818,307.516 155.897 M367.453 158.400 C 367.566 159.610,367.807 161.680,367.988 163.000 L 368.317 165.400 368.185 162.800 C 368.113 161.370,367.872 159.300,367.650 158.200 L 367.247 156.200 367.453 158.400 M297.000 159.388 C 295.430 160.675,295.860 160.683,297.600 159.400 C 298.345 158.850,298.785 158.401,298.578 158.402 C 298.370 158.403,297.660 158.847,297.000 159.388 M322.968 160.800 C 325.064 163.243,325.485 163.626,324.504 162.200 C 324.050 161.540,323.171 160.550,322.550 160.000 C 321.801 159.336,321.941 159.604,322.968 160.800 M37.600 160.200 C 36.294 160.947,36.751 160.955,38.454 160.216 C 39.194 159.894,39.530 159.631,39.200 159.630 C 38.870 159.629,38.150 159.886,37.600 160.200 M215.913 244.646 L 216.027 328.016 215.113 328.383 C 214.219 328.742,214.218 328.750,215.057 328.775 C 215.529 328.789,216.024 328.515,216.157 328.167 C 216.508 327.254,216.445 162.290,216.094 161.738 C 215.932 161.484,215.851 198.793,215.913 244.646 M31.867 162.667 C 31.534 163.000,31.510 252.100,31.843 252.967 C 31.976 253.315,32.268 253.600,32.492 253.600 C 32.744 253.600,32.727 253.393,32.446 253.055 C 32.114 252.655,32.021 240.518,32.097 207.455 C 32.153 182.675,32.185 162.400,32.167 162.400 C 32.148 162.400,32.013 162.520,31.867 162.667 M292.010 164.305 C 290.596 166.439,289.969 167.667,290.442 167.374 C 290.666 167.236,291.015 166.735,291.217 166.261 C 291.419 165.788,292.061 164.815,292.644 164.100 C 293.226 163.385,293.544 162.802,293.351 162.805 C 293.158 162.808,292.554 163.483,292.010 164.305 M175.645 165.400 C 175.640 165.840,175.885 167.100,176.191 168.200 C 176.496 169.300,176.750 169.840,176.755 169.400 C 176.760 168.960,176.515 167.700,176.209 166.600 C 175.904 165.500,175.650 164.960,175.645 165.400 M136.054 168.867 C 136.025 169.234,135.884 169.864,135.741 170.267 C 135.541 170.833,135.595 170.896,135.975 170.546 C 136.246 170.297,136.387 169.667,136.288 169.146 C 136.190 168.626,136.084 168.500,136.054 168.867 M327.664 170.000 C 327.648 170.550,327.901 171.900,328.225 173.000 C 328.632 174.378,328.750 174.565,328.605 173.600 C 328.196 170.875,327.693 168.953,327.664 170.000 M135.395 232.800 C 135.395 266.790,135.442 280.695,135.500 263.700 C 135.558 246.705,135.558 218.895,135.500 201.900 C 135.442 184.905,135.395 198.810,135.395 232.800 M287.805 173.700 C 287.648 174.415,287.471 176.440,287.411 178.200 L 287.302 181.400 287.616 178.200 C 287.789 176.440,288.057 174.415,288.211 173.700 C 288.365 172.985,288.401 172.400,288.291 172.400 C 288.181 172.400,287.962 172.985,287.805 173.700 M176.896 243.476 C 176.843 281.578,176.935 312.836,177.100 312.938 C 177.369 313.104,177.366 245.110,177.096 193.800 C 177.039 183.020,176.949 205.374,176.896 243.476 M286.898 215.220 C 286.824 240.881,286.684 249.156,286.320 249.520 C 285.947 249.893,285.949 250.000,286.333 250.000 C 287.198 250.000,287.208 249.551,287.101 215.200 L 286.995 181.400 286.898 215.220 M38.146 255.802 C 38.776 256.131,39.496 256.399,39.746 256.398 C 39.996 256.396,39.684 256.126,39.054 255.798 C 38.424 255.469,37.704 255.201,37.454 255.202 C 37.204 255.204,37.516 255.474,38.146 255.802 M47.024 259.387 C 47.451 259.710,48.070 259.979,48.400 259.985 C 48.730 259.990,48.484 259.726,47.854 259.398 C 46.395 258.637,46.025 258.632,47.024 259.387 M56.575 263.421 C 57.661 263.959,58.741 264.394,58.975 264.386 C 59.495 264.368,55.562 262.447,55.000 262.444 C 54.780 262.443,55.489 262.883,56.575 263.421 M104.976 283.378 C 105.404 283.720,106.034 283.986,106.376 283.968 C 106.915 283.941,106.918 283.907,106.400 283.714 C 106.070 283.592,105.440 283.326,105.000 283.124 C 104.213 282.762,104.212 282.766,104.976 283.378 M115.346 287.802 C 115.976 288.131,116.696 288.394,116.946 288.386 C 117.600 288.365,115.517 287.231,114.800 287.217 C 114.470 287.210,114.716 287.474,115.346 287.802 M124.224 291.387 C 124.651 291.710,125.270 291.979,125.600 291.985 C 125.930 291.990,125.684 291.726,125.054 291.398 C 123.595 290.637,123.225 290.632,124.224 291.387 M132.800 295.000 C 133.350 295.314,133.980 295.572,134.200 295.572 C 134.420 295.572,134.150 295.314,133.600 295.000 C 133.050 294.686,132.420 294.428,132.200 294.428 C 131.980 294.428,132.250 294.686,132.800 295.000 M182.576 315.413 C 183.004 315.736,183.533 316.000,183.753 316.000 C 183.973 316.000,183.804 315.736,183.376 315.413 C 182.949 315.090,182.420 314.825,182.200 314.825 C 181.980 314.825,182.149 315.090,182.576 315.413 M192.946 319.802 C 193.576 320.131,194.296 320.399,194.546 320.398 C 194.796 320.396,194.484 320.126,193.854 319.798 C 193.224 319.469,192.504 319.201,192.254 319.202 C 192.004 319.204,192.316 319.474,192.946 319.802 M201.200 322.991 C 201.200 323.260,204.461 324.804,204.975 324.779 C 205.209 324.767,204.511 324.317,203.425 323.779 C 201.325 322.738,201.200 322.693,201.200 322.991 M211.375 327.421 C 212.461 327.959,213.541 328.385,213.775 328.367 C 214.274 328.328,210.390 326.451,209.800 326.446 C 209.580 326.444,210.289 326.883,211.375 327.421 " stroke="none" fill="#e4448c" fill-rule="evenodd"></path></g></svg>